<?xml version="1.0" standalone="no"?>
<!DOCTYPE svg PUBLIC "-//W3C//DTD SVG 20010904//EN"
 "http://www.w3.org/TR/2001/REC-SVG-20010904/DTD/svg10.dtd">
<svg version="1.0" xmlns="http://www.w3.org/2000/svg"
 width="900.000000pt" height="900.000000pt" viewBox="0 0 900.000000 900.000000"
 preserveAspectRatio="xMidYMid meet">
<metadata>
Created by potrace 1.14, written by Peter Selinger 2001-2017
</metadata>
<g transform="translate(0.000000,900.000000) scale(0.100000,-0.100000)"
fill="#000000" stroke="none">
<path d="M2400 5590 l0 -940 310 0 310 0 0 410 c0 226 3 410 8 410 6 -1 63
-78 122 -164 8 -12 50 -70 93 -129 l78 -107 182 0 182 1 90 125 c81 113 136
189 187 256 16 22 17 1 18 -390 l0 -412 313 2 312 3 0 935 0 935 -257 3 -256
2 -136 -182 c-75 -101 -206 -277 -291 -393 -86 -115 -159 -211 -163 -213 -4
-1 -13 8 -20 19 -8 12 -78 108 -156 213 -78 105 -202 273 -276 374 l-135 182
-257 0 -258 0 0 -940z"/>
<path d="M4940 6413 c0 -139 17 -218 67 -323 67 -140 205 -247 377 -292 238
-62 543 -41 721 50 130 67 232 196 269 338 27 104 53 94 -258 94 l-274 0 -19
-37 c-21 -45 -88 -83 -143 -83 -20 0 -56 10 -80 23 -57 28 -81 73 -78 142 l3
50 295 6 c195 4 308 10 335 19 62 19 126 55 170 94 l40 35 -712 1 -713 0 0
-117z"/>
<path d="M5496 5459 c-211 -31 -366 -119 -456 -259 -34 -52 -80 -183 -80 -225
l0 -25 274 0 275 0 6 23 c33 106 218 131 285 37 25 -35 36 -110 21 -139 -12
-21 -16 -21 -285 -21 -250 0 -280 -2 -342 -21 -38 -12 -88 -32 -110 -45 -41
-24 -134 -111 -134 -126 0 -4 329 -8 731 -8 l731 0 -5 158 c-3 99 -11 179 -21
217 -56 205 -211 356 -421 409 -136 35 -331 45 -469 25z"/>
<path d="M2400 3360 l0 -940 318 2 317 3 3 248 2 248 78 -3 77 -3 109 -247
109 -248 354 0 353 0 -155 310 c-85 170 -155 313 -154 317 0 5 22 25 49 45
137 105 220 301 220 520 -1 383 -226 625 -631 678 -41 5 -293 10 -561 10
l-488 0 0 -940z m936 418 c29 -13 56 -36 72 -61 23 -35 27 -51 27 -116 0 -91
-18 -129 -77 -169 -40 -26 -47 -27 -190 -30 l-148 -3 0 194 c0 106 3 197 7
200 3 4 64 7 135 7 110 0 135 -3 174 -22z"/>
<path d="M4710 3703 c0 -359 4 -624 10 -663 34 -213 147 -403 305 -510 76 -52
213 -107 311 -126 107 -20 326 -22 434 -4 153 25 315 101 423 199 60 54 133
164 167 251 57 149 60 192 60 851 l0 599 -320 0 -320 0 0 -555 c0 -357 -4
-572 -11 -604 -12 -57 -41 -104 -82 -135 -34 -25 -156 -35 -211 -16 -46 15
-101 79 -115 135 -7 29 -11 230 -11 609 l0 566 -320 0 -320 0 0 -597z"/>
<path d="M6702 3488 c-15 -15 -16 -64 -1 -73 6 -4 8 -13 5 -21 -4 -11 5 -14
39 -14 64 0 97 36 79 84 -3 9 -11 16 -17 16 -7 0 -7 -4 1 -12 17 -17 15 -44
-4 -62 -25 -25 -34 -19 -34 23 0 57 -38 89 -68 59z m46 -10 c14 -14 16 -74 4
-82 -14 -8 -52 24 -52 44 0 45 23 63 48 38z"/>
<path d="M6701 3316 c7 -8 98 -10 105 -3 4 4 -19 7 -51 7 -32 0 -56 -2 -54 -4z"/>
<path d="M6811 3274 c0 -11 3 -14 6 -6 3 7 2 16 -1 19 -3 4 -6 -2 -5 -13z"/>
<path d="M6710 3210 c-27 -27 -26 -72 2 -96 l22 -19 -17 25 c-22 32 -22 63 1
83 25 23 58 21 82 -3 24 -24 25 -35 5 -75 l-15 -30 20 24 c25 30 25 52 -1 85
-25 32 -70 35 -99 6z"/>
<path d="M6739 3041 c110 -14 111 -97 1 -104 l-55 -3 57 -2 c81 -3 102 23 73
90 -5 14 0 17 32 21 21 2 -7 4 -62 4 -78 0 -88 -1 -46 -6z"/>
<path d="M6717 2863 c18 -2 50 -2 70 0 21 2 7 4 -32 4 -38 0 -55 -2 -38 -4z"/>
<path d="M6860 2859 c0 -5 5 -7 10 -4 6 3 10 8 10 11 0 2 -4 4 -10 4 -5 0 -10
-5 -10 -11z"/>
<path d="M6741 2784 c-29 -14 -49 -29 -45 -34 5 -5 36 -20 69 -34 33 -14 51
-19 40 -11 -10 8 -34 21 -52 27 -18 7 -33 16 -33 20 0 4 21 19 48 32 61 33 42
32 -27 0z"/>
<path d="M6745 2662 c-50 -10 -71 -66 -40 -108 17 -23 20 -12 3 16 -15 24 0
73 25 78 15 3 17 -5 17 -57 0 -51 3 -61 17 -61 13 0 14 3 5 12 -16 16 -16 108
0 108 6 0 20 -7 30 -17 10 -9 18 -11 18 -6 0 22 -42 42 -75 35z"/>
<path d="M6808 2572 l-17 -37 19 24 c11 13 20 29 20 37 0 21 -3 17 -22 -24z"/>
<path d="M6695 2480 c3 -5 8 -10 11 -10 2 0 4 5 4 10 0 6 -5 10 -11 10 -5 0
-7 -4 -4 -10z"/>
</g>
</svg>
