<svg width="64" height="64" viewBox="0 0 64 64" fill="none" xmlns="http://www.w3.org/2000/svg">
<path d="M52.8 0H11.2C5.01441 0 0 5.01441 0 11.2V52.8C0 58.9856 5.01441 64 11.2 64H52.8C58.9856 64 64 58.9856 64 52.8V11.2C64 5.01441 58.9856 0 52.8 0Z" fill="#000058"/>
<path d="M15.68 45.469V18.6141C15.68 18.4201 15.7635 18.3231 15.9305 18.3231C17.7117 18.2677 20.2166 18.24 23.4452 18.24C27.119 18.24 29.8188 19.0853 31.5443 20.7758C33.2978 22.4387 34.1745 24.5311 34.1745 27.053C34.1745 30.1016 33.103 32.4018 30.9599 33.9538C28.8446 35.4781 26.1588 36.2402 22.9024 36.2402C22.5128 36.2402 22.0536 36.2402 21.5248 36.2402C21.0238 36.2125 20.7594 36.1987 20.7315 36.1987V45.469C20.7315 45.663 20.6202 45.76 20.3976 45.76H15.9722C15.7774 45.76 15.68 45.663 15.68 45.469ZM20.7315 22.1061V32.3326C21.1212 32.388 21.9283 32.4157 23.1529 32.4157C24.9064 32.4157 26.3397 32.0138 27.453 31.2101C28.5663 30.3787 29.1229 29.0207 29.1229 27.1362C29.1229 25.5288 28.622 24.2816 27.62 23.3948C26.6459 22.4802 25.2543 22.023 23.4452 22.023C21.9701 22.023 21.0655 22.0507 20.7315 22.1061Z" fill="#9999F9"/>
<path d="M36.8392 25.5149H40.7635C40.9862 25.5149 41.1393 25.6258 41.2228 25.8475C41.4454 26.4018 41.5846 27.2055 41.6403 28.2586C43.2545 26.1801 45.3837 25.1408 48.0278 25.1408C48.2226 25.1408 48.32 25.2378 48.32 25.4318V29.6304C48.32 29.8522 48.2087 29.9492 47.986 29.9214C45.5646 29.7829 43.6581 30.4064 42.2665 31.7921C42.016 32.0416 41.8908 32.3741 41.8908 32.7898V45.469C41.8908 45.663 41.7794 45.76 41.5568 45.76H37.1732C36.9227 45.76 36.7975 45.6491 36.7975 45.4274V31.3764C36.7975 29.1316 36.7279 27.2748 36.5887 25.8059C36.5609 25.6119 36.6444 25.5149 36.8392 25.5149Z" fill="#9999F9"/>
</svg>
