<svg width="65" height="64" viewBox="0 0 65 64" fill="none" xmlns="http://www.w3.org/2000/svg">
<g clip-path="url(#clip0_4_677)">
<path d="M11.7879 5.1585e-06H53.1213C54.61 -0.00143394 56.0843 0.298246 57.46 0.881893C58.8357 1.46554 60.0856 2.3217 61.1383 3.40137C62.1909 4.48103 63.0257 5.76302 63.5948 7.17395C64.1638 8.58488 64.456 10.0971 64.4546 11.6239V52.3761C64.456 53.9029 64.1638 55.4151 63.5948 56.826C63.0257 58.237 62.1909 59.519 61.1383 60.5986C60.0856 61.6783 58.8357 62.5345 57.46 63.1181C56.0843 63.7018 54.61 64.0014 53.1213 64H11.7879C10.2992 64.0014 8.82485 63.7018 7.44919 63.1181C6.07353 62.5345 4.8236 61.6783 3.77092 60.5986C2.71825 59.519 1.88349 58.237 1.31444 56.826C0.745379 55.4151 0.453192 53.9029 0.454595 52.3761V11.6239C0.453192 10.0971 0.745379 8.58488 1.31444 7.17395C1.88349 5.76302 2.71825 4.48103 3.77092 3.40137C4.8236 2.3217 6.07353 1.46554 7.44919 0.881893C8.82485 0.298246 10.2992 -0.00143394 11.7879 5.1585e-06V5.1585e-06Z" fill="#2965F1"/>
<path d="M16.1203 26.3833L16.75 33.4105H32.4756V26.3833H16.1203ZM14.8546 12.16L15.4934 19.1873H32.4756V12.16H14.8546V12.16ZM32.4756 44.6338L32.4448 44.642L24.6186 42.5288L24.1183 36.9243H17.064L18.0484 47.9581L32.4433 51.9539L32.4756 51.9451V44.6338Z" fill="#EBEBEB"/>
<path d="M48.7861 26.3833L50.0546 12.16H32.4514V19.1873H42.3534L41.714 26.3833H32.4514V33.4105H41.1047L40.2888 42.5244L32.4512 44.6398V51.9506L46.8575 47.9581L46.9631 46.7708L48.6147 28.2703L48.7861 26.3833V26.3833Z" fill="white"/>
</g>
<defs>
<clipPath id="clip0_4_677">
<rect width="64" height="64" fill="white" transform="translate(0.45459)"/>
</clipPath>
</defs>
</svg>
