<svg width="65" height="64" viewBox="0 0 65 64" fill="none" xmlns="http://www.w3.org/2000/svg">
<g clip-path="url(#clip0_4_655)">
<path d="M12.1515 5.1585e-06H53.4848C54.9735 -0.00143394 56.4479 0.298246 57.8236 0.881893C59.1992 1.46554 60.4492 2.3217 61.5018 3.40137C62.5545 4.48103 63.3893 5.76302 63.9583 7.17395C64.5274 8.58488 64.8196 10.0971 64.8182 11.6239V52.3761C64.8196 53.9029 64.5274 55.4151 63.9583 56.826C63.3893 58.237 62.5545 59.519 61.5018 60.5986C60.4492 61.6783 59.1992 62.5345 57.8236 63.1181C56.4479 63.7018 54.9735 64.0014 53.4848 64H12.1515C10.6628 64.0014 9.18843 63.7018 7.81277 63.1181C6.43712 62.5345 5.18718 61.6783 4.13451 60.5986C3.08183 59.519 2.24708 58.237 1.67802 56.826C1.10897 55.4151 0.816778 53.9029 0.818181 52.3761V11.6239C0.816778 10.0971 1.10897 8.58488 1.67802 7.17395C2.24708 5.76302 3.08183 4.48103 4.13451 3.40137C5.18718 2.3217 6.43712 1.46554 7.81277 0.881893C9.18843 0.298246 10.6628 -0.00143394 12.1515 5.1585e-06V5.1585e-06Z" fill="#F16529"/>
<path d="M22.8981 19.1873H32.8392V12.16H15.2182L15.3863 14.0453L17.1136 33.4105H32.8392V26.3833H23.5403L22.8981 19.1873V19.1873ZM24.4819 36.9243H17.4276L18.412 47.9581L32.8069 51.9539L32.8392 51.9451V44.6338L32.8084 44.642L24.9822 42.5287L24.4819 36.9243V36.9243Z" fill="#EBEBEB"/>
<path d="M32.815 33.4105H41.4683L40.6524 42.5244L32.8148 44.6398V51.9506L47.2211 47.9581L47.3267 46.7708L48.9783 28.2703L49.1497 26.3833H32.815V33.4105ZM32.815 19.1701V19.1873H49.7891L49.9299 17.6079L50.2503 14.0453L50.4182 12.16H32.815V19.1703V19.1701Z" fill="white"/>
</g>
<defs>
<clipPath id="clip0_4_655">
<rect width="64" height="64" fill="white" transform="translate(0.818176)"/>
</clipPath>
</defs>
</svg>
