<svg width="65" height="64" viewBox="0 0 65 64" fill="none" xmlns="http://www.w3.org/2000/svg">
<path d="M53.3 0H11.7C5.51441 0 0.5 5.01441 0.5 11.2V52.8C0.5 58.9856 5.51441 64 11.7 64H53.3C59.4856 64 64.5 58.9856 64.5 52.8V11.2C64.5 5.01441 59.4856 0 53.3 0Z" fill="#000058"/>
<path d="M27.4302 37.4084H18.5664L16.2776 44.7325C16.2499 44.9545 16.1112 45.0654 15.8615 45.0654H11.7001C11.4227 45.0654 11.3256 44.9267 11.4088 44.6493L19.4403 20.1385C19.6345 19.6113 19.7455 18.8484 19.7732 17.8497C19.7732 17.6832 19.8565 17.6 20.0229 17.6H25.8489C26.0153 17.6 26.1124 17.6693 26.1402 17.808L35.1288 44.6909C35.212 44.9406 35.1426 45.0654 34.9207 45.0654H30.2599C30.0657 45.0654 29.927 44.9822 29.8438 44.8158L27.4302 37.4084ZM19.5652 33.455H26.4731C26.3066 32.8724 25.9598 31.735 25.4327 30.0427C24.9056 28.3503 24.4201 26.769 23.9762 25.2986C23.5324 23.8283 23.1994 22.6631 22.9775 21.803H22.9359C22.6307 23.2457 21.5071 27.1297 19.5652 33.455Z" fill="#9999F9"/>
<path d="M48.876 35.8271H41.2607C41.2884 37.6026 41.7878 39.0036 42.7588 40.0301C43.7298 41.0566 45.1862 41.5698 47.1282 41.5698C48.9038 41.5698 50.4851 41.2647 51.8722 40.6543C52.0387 40.5434 52.1219 40.5988 52.1219 40.8208V43.8586C52.1219 44.0528 52.0387 44.2193 51.8722 44.358C50.2909 45.0793 48.3489 45.44 46.0463 45.44C42.6339 45.44 40.1232 44.469 38.5141 42.527C36.9328 40.5572 36.1421 38.102 36.1421 35.1612C36.1421 32.1095 36.9744 29.5572 38.639 27.5042C40.3035 25.4512 42.5784 24.4247 45.4637 24.4247C48.2102 24.4247 50.2493 25.2709 51.5809 26.9632C52.9403 28.6555 53.62 30.6391 53.62 32.9141C53.62 34.0515 53.5645 34.8561 53.4535 35.3277C53.4258 35.5219 53.3148 35.6329 53.1206 35.6606C52.3993 35.7716 50.9845 35.8271 48.876 35.8271ZM41.2607 32.6228H46.7537C47.9466 32.6228 48.6263 32.595 48.7928 32.5395C48.8205 32.4286 48.8344 32.2344 48.8344 31.9569C48.8344 30.9027 48.557 29.9594 48.0021 29.1272C47.4473 28.2949 46.5456 27.8787 45.2972 27.8787C44.0765 27.8787 43.1333 28.3226 42.4675 29.2104C41.8016 30.0982 41.3994 31.2356 41.2607 32.6228Z" fill="#9999F9"/>
</svg>
