<svg width="64" height="64" viewBox="0 0 64 64" fill="none" xmlns="http://www.w3.org/2000/svg">
<g clip-path="url(#clip0_4_635)">
<path d="M11.3333 5.1585e-06H52.6667C54.1554 -0.00143394 55.6297 0.298246 57.0054 0.881893C58.3811 1.46554 59.631 2.3217 60.6837 3.40137C61.7363 4.48103 62.5711 5.76302 63.1402 7.17395C63.7092 8.58488 64.0014 10.0971 64 11.6239V52.3761C64.0014 53.9029 63.7092 55.4151 63.1402 56.826C62.5711 58.237 61.7363 59.519 60.6837 60.5986C59.631 61.6783 58.3811 62.5345 57.0054 63.1181C55.6297 63.7018 54.1554 64.0014 52.6667 64H11.3333C9.84463 64.0014 8.37026 63.7018 6.9946 63.1181C5.61894 62.5345 4.36901 61.6783 3.31633 60.5986C2.26366 59.519 1.4289 58.237 0.859846 56.826C0.29079 55.4151 -0.00139809 53.9029 5.02954e-06 52.3761V11.6239C-0.00139809 10.0971 0.29079 8.58488 0.859846 7.17395C1.4289 5.76302 2.26366 4.48103 3.31633 3.40137C4.36901 2.3217 5.61894 1.46554 6.9946 0.881893C8.37026 0.298246 9.84463 -0.00143394 11.3333 5.1585e-06V5.1585e-06Z" fill="#659AD2"/>
<path d="M27.8621 51.884C16.9101 51.884 8 42.974 8 32.022C8 21.07 16.9101 12.1599 27.8621 12.1599C34.9291 12.1599 41.52 15.9629 45.0624 22.0847L36.4666 27.0588C34.6936 23.9946 31.3963 22.0909 27.8621 22.0909C22.386 22.0909 17.931 26.5459 17.931 32.022C17.931 37.4979 22.386 41.953 27.8621 41.953C31.3967 41.953 34.694 40.0494 36.4672 36.9846L45.063 41.9585C41.5206 48.0809 34.9295 51.884 27.8621 51.884Z" fill="white"/>
<path d="M47.7241 30.9185H45.5171V28.7117H43.3105V30.9185H41.1035V33.1253H43.3105V35.3324H45.5171V33.1253H47.7241V30.9185Z" fill="white"/>
<path d="M56 30.9185H53.793V28.7117H51.5863V30.9185H49.3793V33.1253H51.5863V35.3324H53.793V33.1253H56V30.9185Z" fill="white"/>
</g>
<defs>
<clipPath id="clip0_4_635">
<rect width="64" height="64" fill="white"/>
</clipPath>
</defs>
</svg>
