<svg width="64" height="64" viewBox="0 0 64 64" fill="none" xmlns="http://www.w3.org/2000/svg">
<path d="M52.8 0H11.2C5.01441 0 0 5.01441 0 11.2V52.8C0 58.9856 5.01441 64 11.2 64H52.8C58.9856 64 64 58.9856 64 52.8V11.2C64 5.01441 58.9856 0 52.8 0Z" fill="#071D34"/>
<path d="M21.8196 45.7067H6.76911C6.52305 45.7067 6.40002 45.5685 6.40002 45.292V18.6665C6.40002 18.4453 6.50938 18.3347 6.7281 18.3347H11.1161C11.2802 18.3347 11.3622 18.4315 11.3622 18.625V41.8083H22.5988C22.8448 41.8083 22.9405 41.9189 22.8858 42.1401L22.2297 45.3749C22.175 45.5961 22.0383 45.7067 21.8196 45.7067Z" fill="#55A5F9"/>
<path d="M25.1023 25.5095H28.9572C29.1759 25.5095 29.3262 25.6201 29.4083 25.8413C29.627 26.3942 29.7637 27.1961 29.8184 28.2467C31.4041 26.1731 33.4955 25.1362 36.0928 25.1362C36.2842 25.1362 36.3799 25.233 36.3799 25.4266V29.6153C36.3799 29.8365 36.2705 29.9333 36.0518 29.9056C33.6732 29.7674 31.8005 30.3895 30.4335 31.7719C30.1874 32.0207 30.0644 32.3525 30.0644 32.7672V45.4164C30.0644 45.61 29.9551 45.7067 29.7363 45.7067H25.4303C25.1843 45.7067 25.0613 45.5961 25.0613 45.3749V31.3572C25.0613 29.1176 24.9929 27.2652 24.8562 25.7998C24.8289 25.6063 24.9109 25.5095 25.1023 25.5095Z" fill="#55A5F9"/>
<path d="M57.354 41.3936V44.7114C57.354 44.9602 57.2583 45.1399 57.0669 45.2505C55.7273 45.8035 53.8545 46.08 51.4486 46.08C47.5664 46.08 44.354 44.9049 41.8114 42.5548C39.2688 40.2047 37.9975 36.6518 37.9975 31.8963C37.9975 27.6937 39.2551 24.3206 41.7704 21.7769C44.313 19.2056 47.6621 17.92 51.8177 17.92C54.3056 17.92 56.151 18.2103 57.354 18.7909C57.518 18.8462 57.6 18.9983 57.6 19.2471V22.8552C57.6 23.187 57.4907 23.27 57.2719 23.1041C55.905 22.3299 54.1416 21.9428 51.9817 21.9428C49.2478 21.9428 47.0879 22.7999 45.5022 24.5141C43.9165 26.2007 43.1237 28.6061 43.1237 31.7304C43.1237 33.6382 43.3971 35.2971 43.9439 36.7071C44.518 38.1172 45.2698 39.1817 46.1994 39.9005C47.1289 40.6194 48.0858 41.1447 49.0701 41.4765C50.0816 41.8083 51.1342 41.9742 52.2278 41.9742C53.9775 41.9742 55.5906 41.7115 57.0669 41.1862C57.2583 41.1033 57.354 41.1724 57.354 41.3936Z" fill="#55A5F9"/>
</svg>
